<svg width="60" height="60" viewBox="0 0 60 60" fill="none" xmlns="http://www.w3.org/2000/svg">
<path d="M48.1818 5.76367C46.1727 5.76367 44.5455 7.39094 44.5455 9.40004C44.5455 11.4091 46.1727 13.0364 48.1818 13.0364C50.1909 13.0364 51.8182 11.4091 51.8182 9.40004C51.8182 7.39094 50.1909 5.76367 48.1818 5.76367ZM48.1818 10.6091C47.5091 10.6091 46.9727 10.0637 46.9727 9.40004C46.9727 8.7364 47.5182 8.18185 48.1818 8.18185C48.4956 8.194 48.7924 8.32718 49.0101 8.55345C49.2278 8.77972 49.3494 9.08151 49.3494 9.39549C49.3494 9.70947 49.2278 10.0113 49.0101 10.2375C48.7924 10.4638 48.4956 10.597 48.1818 10.6091ZM38.4818 5.76367C36.4727 5.76367 34.8455 7.39094 34.8455 9.40004C34.8455 11.4091 36.4727 13.0364 38.4818 13.0364C40.4909 13.0364 42.1182 11.4091 42.1182 9.40004C42.1182 7.39094 40.4909 5.76367 38.4818 5.76367ZM38.4818 10.6091C37.8091 10.6091 37.2727 10.0637 37.2727 9.40004C37.2727 8.7364 37.8182 8.18185 38.4818 8.18185C38.7956 8.194 39.0924 8.32718 39.3101 8.55345C39.5278 8.77972 39.6494 9.08151 39.6494 9.39549C39.6494 9.70947 39.5278 10.0113 39.3101 10.2375C39.0924 10.4638 38.7956 10.597 38.4818 10.6091ZM28.7909 5.76367C26.7818 5.76367 25.1546 7.39094 25.1546 9.40004C25.1546 11.4091 26.7818 13.0364 28.7909 13.0364C30.8 13.0364 32.4273 11.4091 32.4273 9.40004C32.4273 7.39094 30.7909 5.76367 28.7909 5.76367ZM28.7909 10.6091C28.1182 10.6091 27.5818 10.0637 27.5818 9.40004C27.5818 8.7364 28.1182 8.18185 28.7909 8.18185C29.4546 8.18185 30 8.72731 30 9.40004C30 10.0728 29.4546 10.6091 28.7909 10.6091ZM44.5091 47.9273C43.4455 46.8546 41.7546 46.6455 40.4182 47.2637C40.3818 47.2091 40.3546 47.1455 40.3 47.0909L39.4364 46.2273C44.1727 40.6182 43.9 32.2091 38.6182 26.9273C33.0455 21.3546 23.9818 21.3546 18.4182 26.9273C12.8455 32.5 12.8455 41.5637 18.4182 47.1273C21.2 49.9091 24.8636 51.3091 28.5182 51.3091C31.8 51.3091 35.0727 50.1819 37.7182 47.9455L38.5818 48.8091C38.6273 48.8546 38.6909 48.8819 38.7455 48.9182C38.1 50.2546 38.3182 51.9091 39.4273 53.0091L44.4727 58.0546C46.6 60.0273 48.8727 58.7364 49.5455 58.0546C50.2273 57.3728 51.5364 55.1273 49.5455 52.9819L44.5091 47.9273ZM20.1364 45.4C15.5091 40.7728 15.5091 33.2546 20.1364 28.6273C22.4455 26.3182 25.4818 25.1546 28.5273 25.1546C31.5636 25.1546 34.6 26.3091 36.9182 28.6273C41.5455 33.2546 41.5455 40.7819 36.9182 45.4C32.2909 50.0273 24.7636 50.0273 20.1364 45.4ZM47.8364 56.3273C47.4 56.7637 46.6273 56.7728 46.1909 56.3273L41.1455 51.2819C40.6909 50.8273 40.6909 50.0909 41.1455 49.6364C41.2536 49.5268 41.3823 49.4397 41.5244 49.3803C41.6664 49.3209 41.8188 49.2903 41.9727 49.2903C42.1267 49.2903 42.2791 49.3209 42.4211 49.3803C42.5631 49.4397 42.6919 49.5268 42.8 49.6364L47.8455 54.6819C48.5 55.4546 48.0636 56.1091 47.8364 56.3273Z" fill="white"/>
<path d="M28.5273 27.4366C23.2454 27.4366 18.9454 31.7366 18.9454 37.0184C18.9454 37.3391 19.0728 37.6466 19.2996 37.8733C19.5263 38.1001 19.8339 38.2275 20.1545 38.2275C20.4752 38.2275 20.7827 38.1001 21.0095 37.8733C21.2362 37.6466 21.3636 37.3391 21.3636 37.0184C21.3636 33.0729 24.5727 29.8638 28.5182 29.8638C29.1909 29.8638 29.7273 29.3184 29.7273 28.6547C29.7309 28.4953 29.7025 28.3368 29.6437 28.1885C29.5849 28.0402 29.497 27.9053 29.3851 27.7917C29.2731 27.6781 29.1395 27.5881 28.9922 27.5271C28.8448 27.4661 28.6867 27.4353 28.5273 27.4366Z" fill="white"/>
<path d="M53.0273 0.90918H6.97273C4.96364 0.90918 3.33636 2.53645 3.33636 4.54554V45.7546C3.33636 47.7637 4.96364 49.391 6.97273 49.391H16.1273C16.4479 49.391 16.7555 49.2636 16.9822 49.0369C17.209 48.8101 17.3364 48.5026 17.3364 48.1819C17.3364 47.8612 17.209 47.5537 16.9822 47.327C16.7555 47.1002 16.4479 46.9728 16.1273 46.9728H6.97273C6.30909 46.9728 5.76364 46.4274 5.76364 45.7637V17.8819H54.2455V45.7637C54.2455 46.4365 53.7 46.9728 53.0364 46.9728H48.2091C47.8884 46.9728 47.5809 47.1002 47.3541 47.327C47.1274 47.5537 47 47.8612 47 48.1819C47 48.5026 47.1274 48.8101 47.3541 49.0369C47.5809 49.2636 47.8884 49.391 48.2091 49.391H53.0364C55.0455 49.391 56.6727 47.7637 56.6727 45.7546V4.54554C56.6636 2.54554 55.0364 0.90918 53.0273 0.90918ZM5.75455 15.4546V4.54554C5.75455 3.88191 6.3 3.33645 6.96364 3.33645H53.0273C53.6909 3.33645 54.2364 3.88191 54.2364 4.54554V15.4546H5.75455Z" fill="white"/>
</svg>
