<svg width="60" height="60" viewBox="0 0 60 60" fill="none" xmlns="http://www.w3.org/2000/svg">
<path d="M17.5082 36.2743L19.2924 36.8507C20.0251 34.5875 21.4561 32.6148 23.3798 31.2155C25.3036 29.8163 27.6212 29.0626 30 29.0626C32.3788 29.0626 34.6964 29.8163 36.6202 31.2155C38.544 32.6148 39.9749 34.5875 40.7077 36.8507L42.4918 36.2743C41.6373 33.6338 39.968 31.332 37.7237 29.6993C35.4793 28.0667 32.7754 27.1873 30 27.1873C27.2247 27.1873 24.5207 28.0667 22.2763 29.6993C20.032 31.332 18.3627 33.6338 17.5082 36.2743Z" fill="white"/>
<path d="M27.7738 12.9758L23.3481 15.0184C22.5362 15.395 21.8486 15.9956 21.3663 16.7495C20.8839 17.5034 20.6267 18.3793 20.625 19.2743V28.125H22.5V19.2744C22.501 18.7374 22.6553 18.2118 22.9447 17.7595C23.2341 17.3071 23.6467 16.9468 24.1338 16.7208L30 14.0133L35.8662 16.7208C36.3533 16.9467 36.7658 17.3071 37.0553 17.7594C37.3447 18.2117 37.499 18.7373 37.5 19.2743V28.125H39.375V19.2744C39.3733 18.3794 39.1162 17.5034 38.6338 16.7495C38.1514 15.9955 37.4639 15.3949 36.6519 15.0183L32.2262 12.9757C32.9693 12.5728 33.5901 11.9771 34.0232 11.2512C34.4564 10.5252 34.6858 9.69601 34.6875 8.8507V6.5625C34.6875 5.3193 34.1936 4.12701 33.3146 3.24794C32.4355 2.36886 31.2432 1.875 30 1.875C28.7568 1.875 27.5645 2.36886 26.6854 3.24794C25.8064 4.12701 25.3125 5.3193 25.3125 6.5625V8.85059C25.3141 9.69593 25.5436 10.5252 25.9767 11.2512C26.4099 11.9771 27.0307 12.5729 27.7738 12.9758ZM27.1875 6.5625C27.1875 5.81658 27.4838 5.10121 28.0113 4.57376C28.5387 4.04632 29.2541 3.75 30 3.75C30.7459 3.75 31.4613 4.04632 31.9887 4.57376C32.5162 5.10121 32.8125 5.81658 32.8125 6.5625V8.85059C32.8115 9.38761 32.6572 9.91318 32.3678 10.3655C32.0784 10.8179 31.6658 11.1782 31.1787 11.4042L30 11.9482L28.8213 11.4042C28.3342 11.1783 27.9217 10.8179 27.6322 10.3656C27.3428 9.91325 27.1885 9.3877 27.1875 8.8507V6.5625Z" fill="white"/>
<path d="M24.375 18.75H26.25V26.25H24.375V18.75ZM33.75 18.75H35.625V26.25H33.75V18.75ZM30 51.5625C27.49 51.5714 25.0507 50.7323 23.0774 49.1811L21.9226 50.6583C24.2299 52.4593 27.073 53.4375 30 53.4375C32.927 53.4375 35.77 52.4593 38.0774 50.6583L36.9226 49.1811C34.9493 50.7323 32.5099 51.5714 30 51.5625Z" fill="white"/>
<path d="M23.3391 43.5518L22.0596 45.6395L24.673 48.2528L26.7607 46.9736L27.5827 47.3142L28.152 49.6875H31.8484L32.4175 47.3142L33.2394 46.9736L35.3271 48.2529L37.9404 45.6395L36.6612 43.5518L37.0018 42.7298L39.375 42.1605V38.4641L37.0017 37.895L36.6611 37.0731L37.9404 34.9854L35.327 32.3721L33.2393 33.6513L32.4173 33.3107L31.848 30.9375H28.1516L27.5825 33.3108L26.7606 33.6514L24.6729 32.3721L22.0596 34.9855L23.3388 37.0732L22.9982 37.8952L20.625 38.4645V42.1609L22.9983 42.73L23.3391 43.5518ZM22.5 39.9429L24.3647 39.4957L25.437 36.9082L24.4307 35.2662L24.9537 34.7432L26.5957 35.7495L29.1832 34.6772L29.6304 32.8125H30.3696L30.8168 34.6772L33.4043 35.7495L35.0463 34.7432L35.5693 35.2661L34.563 36.9082L35.6353 39.4957L37.5 39.9429V40.6821L35.6353 41.1293L34.563 43.7168L35.5693 45.3588L35.0464 45.8818L33.4043 44.8755L30.8168 45.9478L30.3696 47.8125H29.6304L29.1832 45.9478L26.5957 44.8755L24.9536 45.8818L24.4307 45.3589L25.437 43.7168L24.3647 41.1293L22.5 40.6821V39.9429Z" fill="white"/>
<path d="M30 44.0625C30.7417 44.0625 31.4667 43.8426 32.0834 43.4305C32.7001 43.0185 33.1807 42.4328 33.4645 41.7476C33.7484 41.0623 33.8226 40.3083 33.6779 39.5809C33.5333 38.8535 33.1761 38.1853 32.6516 37.6609C32.1272 37.1364 31.459 36.7792 30.7316 36.6346C30.0042 36.4899 29.2502 36.5641 28.5649 36.848C27.8797 37.1318 27.294 37.6124 26.882 38.2291C26.4699 38.8458 26.25 39.5708 26.25 40.3125C26.2511 41.3067 26.6466 42.2599 27.3496 42.9629C28.0526 43.6659 29.0058 44.0614 30 44.0625ZM30 38.4375C30.3708 38.4375 30.7334 38.5475 31.0417 38.7535C31.35 38.9595 31.5904 39.2524 31.7323 39.595C31.8742 39.9376 31.9113 40.3146 31.839 40.6783C31.7666 41.042 31.5881 41.3761 31.3258 41.6383C31.0636 41.9005 30.7295 42.0791 30.3658 42.1515C30.0021 42.2238 29.6251 42.1867 29.2825 42.0448C28.9399 41.9029 28.647 41.6625 28.441 41.3542C28.235 41.0459 28.125 40.6833 28.125 40.3125C28.1256 39.8154 28.3233 39.3388 28.6748 38.9873C29.0263 38.6358 29.5029 38.4381 30 38.4375ZM17.9019 43.1433L13.4762 41.1007C14.2193 40.6978 14.8401 40.1021 15.2732 39.3762C15.7064 38.6502 15.9358 37.821 15.9375 36.9757V34.6875C15.9375 33.4443 15.4436 32.252 14.5646 31.3729C13.6855 30.4939 12.4932 30 11.25 30C10.0068 30 8.81451 30.4939 7.93544 31.3729C7.05636 32.252 6.5625 33.4443 6.5625 34.6875V36.9756C6.56416 37.8209 6.79362 38.6501 7.22675 39.376C7.65989 40.1019 8.28067 40.6977 9.02379 41.1006L4.59809 43.1433C3.78614 43.5199 3.09858 44.1205 2.61621 44.8745C2.13383 45.6284 1.87669 46.5044 1.875 47.3994V58.125H3.75V47.3994C3.75101 46.8624 3.90529 46.3368 4.19471 45.8845C4.48413 45.4321 4.89667 45.0718 5.38383 44.8458L11.25 42.1383L17.1162 44.8458C17.6033 45.0717 18.0158 45.4321 18.3053 45.8844C18.5947 46.3367 18.749 46.8623 18.75 47.3993V58.125H20.625V47.3994C20.6233 46.5044 20.3662 45.6284 19.8838 44.8745C19.4014 44.1205 18.7139 43.5199 17.9019 43.1433ZM12.4287 39.5292L11.25 40.0732L10.0713 39.5292C9.58418 39.3033 9.17166 38.9429 8.88224 38.4906C8.59282 38.0383 8.43853 37.5127 8.4375 36.9757V34.6875C8.4375 33.9416 8.73382 33.2262 9.26126 32.6988C9.78871 32.1713 10.5041 31.875 11.25 31.875C11.9959 31.875 12.7113 32.1713 13.2387 32.6988C13.7662 33.2262 14.0625 33.9416 14.0625 34.6875V36.9756C14.0615 37.5126 13.9072 38.0382 13.6178 38.4905C13.3284 38.9429 12.9158 39.3032 12.4287 39.5292Z" fill="white"/>
<path d="M5.625 48.75H7.5V58.125H5.625V48.75ZM15 48.75H16.875V58.125H15V48.75ZM55.4019 43.1433L50.9762 41.1007C51.7193 40.6978 52.3401 40.1021 52.7732 39.3762C53.2064 38.6502 53.4358 37.821 53.4375 36.9757V34.6875C53.4375 33.4443 52.9436 32.252 52.0646 31.3729C51.1855 30.4939 49.9932 30 48.75 30C47.5068 30 46.3145 30.4939 45.4354 31.3729C44.5564 32.252 44.0625 33.4443 44.0625 34.6875V36.9756C44.0642 37.8209 44.2936 38.6501 44.7268 39.376C45.1599 40.1019 45.7807 40.6977 46.5238 41.1006L42.0981 43.1433C41.2861 43.5199 40.5986 44.1205 40.1162 44.8745C39.6338 45.6284 39.3767 46.5044 39.375 47.3994V58.125H41.25V47.3994C41.251 46.8624 41.4053 46.3368 41.6947 45.8845C41.9841 45.4321 42.3967 45.0718 42.8838 44.8458L48.75 42.1383L54.6162 44.8458C55.1033 45.0717 55.5158 45.4321 55.8053 45.8844C56.0947 46.3367 56.249 46.8623 56.25 47.3993V58.125H58.125V47.3994C58.1233 46.5044 57.8662 45.6284 57.3838 44.8745C56.9014 44.1205 56.2139 43.5199 55.4019 43.1433ZM49.9287 39.5292L48.75 40.0732L47.5713 39.5292C47.0842 39.3033 46.6717 38.9429 46.3822 38.4906C46.0928 38.0383 45.9385 37.5127 45.9375 36.9757V34.6875C45.9375 33.9416 46.2338 33.2262 46.7613 32.6988C47.2887 32.1713 48.0041 31.875 48.75 31.875C49.4959 31.875 50.2113 32.1713 50.7387 32.6988C51.2662 33.2262 51.5625 33.9416 51.5625 34.6875V36.9756C51.5615 37.5126 51.4072 38.0382 51.1178 38.4905C50.8284 38.9429 50.4158 39.3032 49.9287 39.5292Z" fill="white"/>
<path d="M43.125 48.75H45V58.125H43.125V48.75ZM52.5 48.75H54.375V58.125H52.5V48.75ZM47.8125 10.3125V28.125H49.6875V10.3125C49.6867 9.56684 49.3901 8.85195 48.8628 8.32469C48.3355 7.79742 47.6207 7.50084 46.875 7.5H36.5625V9.375H46.875C47.1235 9.37531 47.3618 9.47418 47.5376 9.64993C47.7133 9.82568 47.8122 10.064 47.8125 10.3125ZM12.1875 10.3125C12.1878 10.064 12.2867 9.82568 12.4624 9.64993C12.6382 9.47418 12.8765 9.37531 13.125 9.375H23.4375V7.5H13.125C12.3793 7.50084 11.6645 7.79742 11.1372 8.32469C10.6099 8.85195 10.3133 9.56684 10.3125 10.3125V28.125H12.1875V10.3125Z" fill="white"/>
</svg>
