<svg width="200" height="200" viewBox="0 0 200 200" fill="none" xmlns="http://www.w3.org/2000/svg">
<g clip-path="url(#clip0_108_802)">
<path fill-rule="evenodd" clip-rule="evenodd" d="M112.2 149.958C111.972 150.147 111.802 150.397 111.71 150.679C111.618 150.96 111.608 151.262 111.681 151.55L116.183 169.143L100.839 159.428C100.588 159.269 100.298 159.185 100.002 159.185C99.705 159.185 99.4147 159.269 99.1644 159.428L83.8257 169.143L88.3218 151.55C88.3948 151.263 88.3854 150.961 88.2946 150.68C88.2038 150.399 88.0353 150.148 87.8085 149.958L73.8281 138.371L91.9492 137.213C92.2445 137.193 92.5283 137.09 92.7674 136.916C93.0065 136.742 93.1912 136.503 93.2999 136.228L99.9999 119.355L106.703 136.228C106.812 136.503 106.997 136.742 107.236 136.916C107.475 137.09 107.759 137.193 108.054 137.213L126.175 138.371L112.199 149.958H112.2ZM131.689 136.582C131.593 136.284 131.409 136.021 131.162 135.828C130.914 135.636 130.614 135.522 130.301 135.502L109.245 134.154L101.455 114.54C101.339 114.25 101.138 114.002 100.879 113.827C100.62 113.651 100.314 113.558 100.002 113.558C99.6888 113.558 99.3833 113.651 99.1242 113.827C98.8651 114.002 98.6643 114.25 98.5476 114.54L90.7581 134.154L69.7035 135.502C69.3909 135.522 69.0915 135.635 68.844 135.827C68.5966 136.019 68.4125 136.281 68.3156 136.578C68.2188 136.876 68.2137 137.196 68.3009 137.497C68.3882 137.798 68.5638 138.065 68.805 138.265L85.0507 151.733L79.8261 172.182C79.7491 172.485 79.7648 172.804 79.8712 173.098C79.9776 173.392 80.1698 173.648 80.4229 173.831C80.676 174.015 80.9784 174.119 81.291 174.128C81.6035 174.138 81.9119 174.054 82.1761 173.887L99.9999 162.601L117.833 173.887C118.097 174.053 118.405 174.137 118.717 174.126C119.029 174.116 119.331 174.012 119.584 173.829C119.836 173.645 120.028 173.39 120.135 173.097C120.241 172.803 120.257 172.485 120.18 172.182L114.953 151.733L131.198 138.265C131.44 138.067 131.616 137.8 131.703 137.499C131.79 137.199 131.785 136.879 131.687 136.582H131.689ZM133.896 169.037C139.321 161.758 142.252 152.922 142.252 143.844C142.252 134.766 139.321 125.93 133.896 118.651H194.462L168.413 142.87C168.256 143.017 168.13 143.195 168.045 143.392C167.959 143.59 167.916 143.803 167.916 144.018C167.917 144.233 167.961 144.446 168.048 144.643C168.134 144.84 168.26 145.018 168.418 145.164L194.426 169.037H133.896ZM99.9999 182.969C107.535 182.973 114.911 180.799 121.24 176.711C127.57 172.622 132.583 166.791 135.677 159.921C138.771 153.05 139.814 145.432 138.681 137.982C137.548 130.533 134.287 123.569 129.29 117.93C128.972 117.864 128.684 117.7 128.463 117.463C128.242 117.225 128.101 116.925 128.059 116.604C124.417 112.842 120.056 109.851 115.236 107.809C110.415 105.767 105.233 104.715 99.9973 104.715C94.7618 104.716 89.5799 105.769 84.7596 107.812C79.9393 109.856 75.5791 112.847 71.9382 116.61C71.8899 116.916 71.7513 117.202 71.5401 117.43C71.3289 117.657 71.0546 117.817 70.7523 117.888C65.7425 123.523 62.4689 130.487 61.326 137.94C60.183 145.393 61.2194 153.018 64.3102 159.895C67.4011 166.773 72.4145 172.61 78.7467 176.704C85.0789 180.798 92.4597 182.973 99.9999 182.969ZM5.57651 169.037L31.5843 145.164C31.7421 145.018 31.868 144.841 31.9545 144.644C32.0409 144.447 32.0859 144.234 32.0867 144.019C32.0875 143.804 32.0441 143.591 31.9591 143.393C31.8742 143.195 31.7495 143.017 31.5929 142.87L5.54057 118.651H66.107C60.6817 125.93 57.7511 134.766 57.7511 143.844C57.7511 152.922 60.6817 161.758 66.107 169.037H5.57651ZM11.4792 98.2839C11.6941 92.8835 15.0179 88.5827 19.9632 87.3101L38.1011 82.6468L36.7968 102.972C36.778 103.286 36.8528 103.597 37.0117 103.868L42.5374 113.167C42.6758 113.4 42.8724 113.593 43.108 113.728C43.3436 113.862 43.6101 113.932 43.8812 113.932C44.1523 113.932 44.4188 113.862 44.6544 113.728C44.89 113.593 45.0866 113.4 45.2249 113.167L50.7519 103.867C50.912 103.597 50.9868 103.285 50.9667 102.971L49.6632 82.6456L53.4812 83.6253C52.4781 86.0228 51.9193 88.5826 51.832 91.18V115.524H23.8734V104.722C23.8734 104.308 23.7088 103.91 23.4157 103.617C23.1227 103.324 22.7253 103.16 22.3109 103.16C21.8965 103.16 21.4991 103.324 21.206 103.617C20.913 103.91 20.7484 104.308 20.7484 104.722V115.525H11.4792V98.2839ZM47.8187 102.685L46.4789 81.8933C45.6413 81.7448 44.7927 81.6673 43.9421 81.6616C43.9226 81.6616 43.9003 81.6671 43.8808 81.6671C43.8613 81.6671 43.839 81.6616 43.8167 81.6616C42.9655 81.6703 42.1164 81.7477 41.2777 81.8933L39.941 102.685L43.8789 109.31L47.8167 102.685H47.8187ZM31.5956 57.9972C31.5425 53.878 32.7843 50.4343 35.1761 48.0316C37.4754 45.7983 40.5647 44.5652 43.7699 44.6015H43.8956C45.4982 44.5703 47.0911 44.8574 48.5819 45.4462C50.0728 46.035 51.432 46.9137 52.5808 48.0316C54.9777 50.4343 56.2199 53.878 56.164 57.9972C56.0578 66.5874 52.7703 76.4249 43.8789 78.5101C34.9871 76.4249 31.6996 66.5874 31.5937 57.9972H31.5956ZM54.955 91.2694C55.2511 83.5976 59.9898 77.4718 67.0339 75.6632L92.7011 69.0616L90.8562 97.7569C90.8374 98.0718 90.9143 98.385 91.0769 98.6554L93.1558 102.152C85.2747 103.448 77.9244 106.957 71.9624 112.272V100.123C71.9624 99.7089 71.7978 99.3115 71.5048 99.0185C71.2118 98.7255 70.8143 98.5608 70.3999 98.5608C69.9855 98.5608 69.5881 98.7255 69.2951 99.0185C69.0021 99.3115 68.8374 99.7089 68.8374 100.123V115.35C68.7816 115.408 68.7257 115.467 68.673 115.528H54.9546V91.2706L54.955 91.2694ZM105.994 97.4737L103.46 101.738C102.318 101.646 101.166 101.593 100.002 101.593C98.8382 101.593 97.6855 101.646 96.5441 101.738L94.0101 97.4737L95.8851 68.294C97.2063 68.0345 98.5488 67.8991 99.8952 67.8898C99.9316 67.8925 99.9679 67.9007 100.002 67.9007C100.035 67.9007 100.071 67.8925 100.107 67.8898C101.454 67.899 102.797 68.0343 104.118 68.294L105.993 97.4737H105.994ZM82.5589 35.998C82.4863 30.1905 84.2472 25.3148 87.6464 21.9046C90.9086 18.7322 95.2935 16.9793 99.8437 17.0288H100.195C104.734 16.9854 109.106 18.738 112.357 21.9046C115.762 25.3148 117.518 30.1905 117.448 35.998C117.297 48.0519 112.628 61.8718 100.003 64.7382C87.3769 61.8718 82.7109 48.0519 82.5601 35.998H82.5589ZM107.302 69.0581L132.969 75.6597C140.014 77.4683 144.752 83.5941 145.048 91.2659V115.524H131.493C131.443 115.526 131.393 115.53 131.343 115.538C131.284 115.474 131.225 115.41 131.167 115.345V100.119C131.167 99.7043 131.003 99.3068 130.709 99.0138C130.416 98.7208 130.019 98.5562 129.605 98.5562C129.19 98.5562 128.793 98.7208 128.5 99.0138C128.207 99.3068 128.042 99.7043 128.042 100.119V112.267C122.08 106.953 114.73 103.444 106.85 102.148L108.926 98.6515C109.089 98.381 109.166 98.0679 109.147 97.753L107.302 69.0577V69.0581ZM150.342 82.6468L149.036 102.972C149.017 103.286 149.092 103.597 149.251 103.868L154.78 113.167C154.918 113.4 155.115 113.594 155.35 113.728C155.586 113.862 155.852 113.933 156.124 113.933C156.395 113.933 156.661 113.862 156.897 113.728C157.133 113.594 157.329 113.4 157.468 113.167L162.993 103.867C163.153 103.597 163.228 103.285 163.208 102.971L161.905 82.6456L180.039 87.3101C184.987 88.5827 188.314 92.8835 188.526 98.2839V115.525H179.255V104.722C179.255 104.308 179.091 103.91 178.798 103.617C178.505 103.324 178.107 103.16 177.693 103.16C177.279 103.16 176.881 103.324 176.588 103.617C176.295 103.91 176.13 104.308 176.13 104.722V115.525H148.174V91.1812C148.088 88.5833 147.528 86.0229 146.522 83.6265L150.342 82.6468ZM160.06 102.686L158.723 81.8944C157.885 81.7461 157.036 81.6686 156.184 81.6628C156.165 81.6628 156.14 81.6683 156.12 81.6683C156.101 81.6683 156.078 81.6628 156.059 81.6628C155.209 81.6714 154.362 81.7489 153.525 81.8944L152.182 102.686L156.12 109.312L160.058 102.686H160.06ZM143.837 57.9983C143.943 66.5886 147.23 76.4261 156.122 78.5112C165.014 76.4261 168.301 66.5886 168.413 57.9983C168.463 53.8792 167.221 50.4355 164.826 48.0327C162.536 45.8051 159.459 44.5723 156.264 44.6026H156.013C152.808 44.5667 149.719 45.7997 147.419 48.0327C145.025 50.4355 143.787 53.8792 143.836 57.9983H143.837ZM171.779 144.009L199.503 118.236C199.733 118.022 199.893 117.744 199.963 117.438C200.033 117.132 200.009 116.812 199.894 116.52C199.779 116.228 199.579 115.977 199.319 115.8C199.06 115.623 198.753 115.528 198.439 115.528H191.652V98.253C191.653 98.2333 191.651 98.2136 191.646 98.1944C191.393 91.371 187.142 85.912 180.818 84.2823L161.927 79.4233C168.768 75.0808 171.435 66.064 171.536 58.0347C171.595 53.0558 170.04 48.8331 167.037 45.8218C164.17 43.0121 160.308 41.4493 156.293 41.4737H156.139C154.121 41.4425 152.116 41.8104 150.24 42.5563C148.363 43.3022 146.653 44.4114 145.207 45.8202C142.204 48.8316 140.65 53.0542 140.715 58.0331C140.812 66.062 143.48 75.0792 150.318 79.4218L145.029 80.7866C142.454 76.7226 138.416 73.8038 133.749 72.6343L106.522 65.6296C106.509 65.621 106.497 65.6101 106.483 65.6019C116.547 60.0702 120.432 47.3358 120.574 36.0355C120.655 29.3683 118.582 23.7167 114.574 19.6952C110.74 15.9489 105.583 13.8668 100.223 13.9015H99.816C94.4466 13.8604 89.2786 15.9428 85.4378 19.6952C81.43 23.7187 79.3511 29.3683 79.4374 36.0355C79.5769 47.3441 83.4675 60.0897 93.5449 65.6128H93.5394L66.2562 72.6343C61.5898 73.8046 57.5514 76.7232 54.9757 80.7866L49.6874 79.4233C56.5281 75.0808 59.196 66.064 59.2937 58.0347C59.355 53.0558 57.8007 48.8331 54.7976 45.8218C53.3589 44.4122 51.6548 43.3022 49.784 42.5558C47.9133 41.8094 45.913 41.4417 43.8992 41.4737C41.8807 41.4419 39.8758 41.8096 37.9999 42.5555C36.124 43.3015 34.4142 44.411 32.9687 45.8202C29.9609 48.8316 28.4085 53.0542 28.4699 58.0331C28.5675 66.062 31.2355 75.0792 38.0757 79.4218L19.1847 84.2823C12.8609 85.912 8.61049 91.371 8.35893 98.1944C8.35428 98.2136 8.35244 98.2333 8.35346 98.253V115.525H1.56245C1.24873 115.526 0.942435 115.621 0.683439 115.798C0.424443 115.975 0.224736 116.226 0.110312 116.518C-0.00411259 116.81 -0.0279556 117.13 0.041886 117.436C0.111728 117.741 0.272019 118.019 0.501899 118.233L28.223 144.006L0.507758 169.447C0.27528 169.659 0.112482 169.937 0.040719 170.244C-0.0310435 170.551 -0.00841872 170.872 0.105625 171.166C0.21967 171.459 0.419807 171.712 0.679784 171.889C0.93976 172.067 1.24743 172.162 1.56245 172.162H68.4734C68.5352 172.16 68.5968 172.154 68.6578 172.143C72.6139 176.533 77.4483 180.044 82.8478 182.447C88.2474 184.85 94.0915 186.091 100.002 186.091C105.912 186.091 111.756 184.85 117.155 182.447C122.555 180.044 127.389 176.533 131.345 172.143C131.403 172.153 131.462 172.16 131.521 172.162H198.439C198.755 172.163 199.063 172.068 199.323 171.891C199.584 171.713 199.784 171.461 199.899 171.167C200.013 170.873 200.036 170.552 199.964 170.245C199.893 169.938 199.73 169.66 199.497 169.447L171.779 144.009Z" fill="url(#paint0_linear_108_802)"/>
</g>
<defs>
<linearGradient id="paint0_linear_108_802" x1="25.9374" y1="186.25" x2="187.812" y2="45.3123" gradientUnits="userSpaceOnUse">
<stop stop-color="#523789"/>
<stop offset="1" stop-color="#523789"/>
</linearGradient>
<clipPath id="clip0_108_802">
<rect width="200" height="200" fill="white"/>
</clipPath>
</defs>
</svg>
