<svg width="60" height="60" viewBox="0 0 60 60" fill="none" xmlns="http://www.w3.org/2000/svg">
<g clip-path="url(#clip0_108_935)">
<path d="M59.0893 50.8954H53.2875V46.0928C53.2875 45.851 53.1916 45.6191 53.0209 45.4478C52.8502 45.2766 52.6186 45.1801 52.3768 45.1794H30.908V41.6222C33.9001 41.4985 36.8295 40.7264 39.4939 39.3593C42.1582 37.9922 44.4939 36.0628 46.3393 33.7044C49.2361 30.0465 50.8048 25.5132 50.7884 20.8472C50.8042 16.1838 49.2355 11.6532 46.3393 7.99811C44.3824 5.54248 41.8972 3.55951 39.0684 2.19662C36.2396 0.833729 33.14 0.125977 30 0.125977C26.86 0.125977 23.7604 0.833729 20.9316 2.19662C18.1028 3.55951 15.6176 5.54248 13.6607 7.99811C10.7612 11.6549 9.1905 16.1885 9.20624 20.8553C9.19199 25.5218 10.7625 30.0549 13.6607 33.7124C15.5064 36.0711 17.8425 38.0008 20.5073 39.3679C23.1721 40.735 26.1021 41.5069 29.0946 41.6303V45.1874H7.62052C7.50092 45.1877 7.38257 45.2117 7.27221 45.2577C7.16185 45.3038 7.06165 45.3712 6.97733 45.456C6.89301 45.5408 6.82623 45.6414 6.78078 45.7521C6.73534 45.8627 6.71213 45.9812 6.71249 46.1008V50.9035H0.908021C0.788198 50.9038 0.669621 50.9278 0.559088 50.9741C0.448554 51.0203 0.348235 51.0879 0.263881 51.173C0.179527 51.2581 0.112795 51.3591 0.0675112 51.47C0.0222269 51.5809 -0.000720095 51.6997 -1.47369e-05 51.8195V58.982C-1.47369e-05 59.2229 0.095653 59.4538 0.265943 59.6241C0.436233 59.7944 0.667195 59.8901 0.908021 59.8901H14.333C14.4523 59.8901 14.5703 59.8666 14.6805 59.821C14.7907 59.7753 14.8908 59.7084 14.9751 59.6241C15.0594 59.5398 15.1263 59.4397 15.1719 59.3295C15.2176 59.2194 15.2411 59.1013 15.2411 58.982V51.8195C15.2411 51.5785 15.1455 51.3472 14.9753 51.1765C14.805 51.0058 14.5741 50.9095 14.333 50.9088H8.53124V46.9981H29.0893V50.8928H23.2875C23.0459 50.8928 22.8143 50.9887 22.6435 51.1595C22.4727 51.3303 22.3768 51.5619 22.3768 51.8035V58.966C22.3775 59.207 22.4737 59.438 22.6445 59.6082C22.8152 59.7784 23.0464 59.874 23.2875 59.874H36.7125C36.9533 59.874 37.1843 59.7783 37.3546 59.608C37.5249 59.4378 37.6205 59.2068 37.6205 58.966V51.8195C37.6205 51.5785 37.5249 51.3472 37.3547 51.1765C37.1845 51.0058 36.9536 50.9095 36.7125 50.9088H30.908V46.9981H51.4687V50.8928H45.6643C45.4227 50.8928 45.1911 50.9887 45.0203 51.1595C44.8495 51.3303 44.7536 51.5619 44.7536 51.8035V58.966C44.7543 59.207 44.8505 59.438 45.0212 59.6082C45.192 59.7784 45.4232 59.874 45.6643 59.874H59.0893C59.3303 59.874 59.5616 59.7784 59.7323 59.6082C59.903 59.438 59.9993 59.207 60 58.966V51.8195C60.0018 51.6988 59.9795 51.579 59.9345 51.4669C59.8896 51.3549 59.8228 51.2529 59.738 51.1669C59.6533 51.0809 59.5523 51.0126 59.4409 50.966C59.3295 50.9194 59.21 50.8954 59.0893 50.8954ZM17.9464 30.7954C16.8268 31.1517 15.7339 31.5642 14.6518 32.0115C12.4659 29.024 11.2133 25.4562 11.0518 21.7579H17.5955C17.7063 24.717 18.3856 27.6271 19.5964 30.3294C19.0473 30.4794 18.4955 30.632 17.9464 30.7954ZM14.6571 9.68561C16.2589 10.3593 17.9046 10.9231 19.583 11.3731C18.3996 14.0836 17.7276 16.9896 17.6009 19.9445H11.0518C11.2128 16.2437 12.4675 12.6736 14.6571 9.68561ZM42.0536 10.9017C43.1705 10.5428 44.2687 10.1303 45.3509 9.68561C47.5373 12.6743 48.7874 16.2447 48.9428 19.9445H42.3964C42.2719 16.9896 41.6008 14.0834 40.417 11.3731C40.9607 11.2124 41.5178 11.0651 42.0536 10.9017ZM45.3509 32.0115C43.7821 31.3536 42.1714 30.8006 40.5294 30.3561C41.6803 27.6305 42.316 24.7152 42.4044 21.7579H48.9455C48.7856 25.4565 47.5328 29.0247 45.3455 32.0115H45.3509ZM27.233 29.124C25.2757 29.2427 23.3295 29.5032 21.4098 29.9035C20.2131 27.347 19.5366 24.5782 19.4196 21.7579H29.0893V29.0517C28.4705 29.0517 27.8571 29.0678 27.2277 29.124H27.233ZM21.8357 11.8847C23.175 12.1526 24.5143 12.3267 25.8777 12.474C26.9491 12.557 28.0205 12.6454 29.0919 12.6508V19.9445H19.4196C19.5485 17.127 20.2159 14.3601 21.3857 11.7936L21.8357 11.8847ZM32.7348 12.5758C34.7154 12.456 36.6848 12.1937 38.6277 11.791C39.7907 14.3601 40.4534 17.1273 40.5803 19.9445H30.908V12.6508C31.5187 12.6428 32.1268 12.6294 32.7348 12.5758ZM38.1696 29.8151C35.7761 29.3477 33.3463 29.0904 30.908 29.0463V21.7579H40.5857C40.4902 24.5765 39.8584 27.351 38.7241 29.9329L38.1696 29.8151ZM30.908 30.857C33.2585 30.8935 35.6007 31.1472 37.9044 31.6151C36.2125 34.6885 33.8145 37.3161 30.908 39.2811V30.857ZM37.6553 10.1329C35.4311 10.5641 33.1734 10.7998 30.908 10.8374V2.60347C33.745 4.53959 36.0949 7.10672 37.7732 10.1035C37.7347 10.1161 37.6953 10.126 37.6553 10.1329ZM29.0893 10.8374C28.7437 10.8374 28.3955 10.8374 28.05 10.8133C26.1265 10.7167 24.2121 10.4867 22.3205 10.1249C22.2908 10.1226 22.2612 10.1181 22.2321 10.1115C23.9095 7.11511 26.2562 4.54658 29.0893 2.60615V10.8374ZM22.3286 31.5642C24.0213 31.2362 25.734 31.0215 27.4553 30.9213C27.9911 30.8731 28.5455 30.8597 29.0893 30.857V39.0106C26.2908 37.0694 23.9587 34.5305 22.2616 31.5776L22.3286 31.5642ZM33.7044 39.4633C36.1961 37.4187 38.2472 34.8901 39.7339 32.0303C41.2391 32.4074 42.7138 32.8972 44.1455 33.4954C41.4102 36.5714 37.7431 38.6674 33.7044 39.4633ZM44.1509 8.20168C44.0411 8.24722 43.9312 8.30079 43.8214 8.34365C42.4498 8.88502 41.043 9.33248 39.6107 9.68293C38.0673 6.78177 35.9471 4.22678 33.3803 2.1749C37.5439 2.91734 41.3361 5.04037 44.1455 8.20168H44.1509ZM26.6196 2.1749C24.0533 4.23121 21.9349 6.79084 20.3946 9.69633C18.9623 9.34587 17.5555 8.89841 16.1839 8.35704C16.0714 8.31418 15.9616 8.26061 15.8518 8.21508C18.6603 5.04879 22.4535 2.92097 26.6196 2.1749ZM15.8518 33.4954C17.3344 32.8776 18.8632 32.377 20.4241 31.9981C22.0135 34.92 24.1774 37.4902 26.7857 39.5544C22.5588 38.8348 18.7027 36.698 15.8518 33.4954ZM13.425 58.0579H1.81874V52.7169H13.425V58.0579ZM35.8044 58.0579H24.1955V52.7169H35.8044V58.0579ZM58.1839 58.0579H46.575V52.7169H58.1839V58.0579Z" fill="white"/>
</g>
<defs>
<clipPath id="clip0_108_935">
<rect width="60" height="60" fill="white"/>
</clipPath>
</defs>
</svg>
