<svg width="60" height="60" viewBox="0 0 60 60" fill="none" xmlns="http://www.w3.org/2000/svg">
<g clip-path="url(#clip0_108_913)">
<path d="M56 8H54V4C54 1.791 52.209 0 50 0H10C7.791 0 6 1.791 6 4V8H4C1.791 8 0 9.791 0 12V46C0 48.209 1.791 50 4 50H23.6558L21.2558 58H19V60H41V58H38.7441L36.3441 50H56C58.209 50 60 48.209 60 46V12C60 9.791 58.209 8 56 8ZM2 12C2 10.8955 2.8955 10 4 10H6V40H8V4C8 2.8955 8.8955 2 10 2H50C51.1045 2 52 2.8955 52 4V40H54V10H56C57.1045 10 58 10.8955 58 12V42H2V12ZM36.6558 58H23.3442L25.7442 50H34.2559L36.6558 58ZM58 46C58 47.1045 57.1045 48 56 48H4C2.8955 48 2 47.1045 2 46V44H58V46Z" fill="white"/>
<path d="M10 3.99999H12V5.99999H10V3.99999ZM14 3.99999H16V5.99999H14V3.99999ZM18 3.99999H20V5.99999H18V3.99999ZM43.0034 17.3687L48.1739 16.2144L48.6099 18.1665L43.439 19.3207L43.0034 17.3687ZM40.293 8.29299L43.293 5.29249L44.7075 6.70698L41.707 9.70699L40.293 8.29299ZM44.5532 27.895L45.4478 26.106L49.4473 28.106L48.5532 29.895L44.5532 27.895ZM38.3252 6.41124C37.9492 4.72999 36.2822 3.67136 34.6011 4.04686C32.9199 4.42236 31.8614 6.08986 32.2369 7.77099L32.5449 9.15086L19.9659 17.0859L14.9659 18.2021C11.9541 18.8594 9.86225 21.603 10.0254 24.6816C10.189 27.7602 12.5591 30.2671 15.6241 30.602L17.3301 38.2441C17.4511 38.7812 17.9844 39.1191 18.522 39L22.6583 38.0762C22.7865 38.0477 22.9079 37.9941 23.0154 37.9186C23.123 37.8431 23.2146 37.7471 23.2851 37.6362C23.3555 37.5253 23.4034 37.4016 23.4261 37.2722C23.4487 37.1427 23.4456 37.0101 23.417 36.8819L21.787 29.582L22.711 29.376L37.4702 31.207L37.77 32.544C38.0879 33.9672 39.3488 34.981 40.8071 34.9849C41.2748 34.9851 41.7366 34.8803 42.1583 34.6781C42.58 34.4759 42.9509 34.1816 43.2436 33.8169C43.5365 33.4521 43.7437 33.0263 43.8498 32.5707C43.956 32.1152 43.9584 31.6416 43.8569 31.185L38.3252 6.41124ZM12.1431 25.285C11.6269 22.9686 13.0844 20.6727 15.3999 20.1537L19.5942 19.2176L20.5308 23.412L21.4667 27.6057L20.376 27.85L17.2759 28.5429C14.96 29.0579 12.6646 27.6 12.146 25.285H12.1431ZM21.2431 36.3397L19.0581 36.828L17.6469 30.5067L17.7003 30.495L19.8271 30.02L21.2431 36.3397ZM23.48 27.4579L21.48 18.4941L33.0059 11.224L37.0059 29.1346L23.48 27.4579ZM41.08 32.952C40.9353 32.987 40.7851 32.993 40.6381 32.9694C40.4911 32.9459 40.3503 32.8934 40.2238 32.8149C40.0973 32.7363 39.9878 32.6333 39.9017 32.5118C39.8155 32.3904 39.7545 32.253 39.7221 32.1077L34.189 7.33399C34.157 7.1907 34.1535 7.04251 34.1789 6.89789C34.2042 6.75327 34.2577 6.61506 34.3365 6.49116C34.4153 6.36726 34.5177 6.26011 34.6379 6.17583C34.7581 6.09155 34.8938 6.03179 35.0371 5.99999C35.6401 5.86524 36.2384 6.24499 36.373 6.84811L41.9 31.6212C41.9624 31.9062 41.9117 32.2043 41.7586 32.4526C41.6055 32.7009 41.3619 32.8801 41.0793 32.9522L41.08 32.952Z" fill="white"/>
</g>
<defs>
<clipPath id="clip0_108_913">
<rect width="60" height="60" fill="white"/>
</clipPath>
</defs>
</svg>
