<svg width="180" height="86" viewBox="0 0 180 86" fill="none" xmlns="http://www.w3.org/2000/svg">
<g clip-path="url(#clip0_2_3)">
<path fill-rule="evenodd" clip-rule="evenodd" d="M17.6382 14.5475C27.3796 14.5475 35.2764 22.3855 35.2764 32.0544C35.2764 36.1381 33.8677 39.8953 31.5058 42.8732L31.4504 42.8162C29.8751 41.2285 28.0339 40.0106 26.0306 39.2059C27.7176 37.273 28.7393 34.7534 28.7393 32.0011C28.7393 25.9257 23.7592 20.9831 17.6382 20.9831C11.5169 20.9831 6.53703 25.9257 6.53703 32.0011C6.53703 34.7532 7.55881 37.273 9.2456 39.2061C7.24251 40.0111 5.40126 41.2285 3.82601 42.8162L3.77058 42.8732C1.40894 39.895 0 36.1381 0 32.0544C0 22.3855 7.89679 14.5475 17.6382 14.5475ZM180 67.5078V70.5193H167.35V54.3033H179.697V57.3147H171.108V60.8358H178.693V63.7549H171.108V67.5076H180L180 67.5078ZM158.061 70.7973C156.396 70.7973 154.891 70.4385 153.545 69.7201C152.2 69.0021 151.141 68.0059 150.371 66.7317C149.601 65.4578 149.216 64.0172 149.216 62.411C149.216 60.8049 149.601 59.3648 150.371 58.0908C151.141 56.8168 152.2 55.8206 153.545 55.1024C154.891 54.3842 156.404 54.0253 158.085 54.0253C159.5 54.0253 160.78 54.2722 161.924 54.7665C163.068 55.2608 164.029 55.9711 164.806 56.8978L162.379 59.1216C161.274 57.8552 159.905 57.222 158.271 57.222C157.26 57.222 156.357 57.442 155.564 57.8822C154.77 58.3224 154.152 58.9363 153.708 59.724C153.265 60.5118 153.043 61.4073 153.043 62.411C153.043 63.4148 153.265 64.3107 153.708 65.0985C154.152 65.886 154.77 66.5001 155.564 66.9403C156.357 67.3805 157.26 67.6006 158.271 67.6006C159.905 67.6006 161.274 66.9598 162.379 65.6776L164.806 67.9016C164.029 68.8437 163.064 69.5617 161.912 70.056C160.761 70.5503 159.477 70.7973 158.061 70.7973H158.061ZM142.588 54.3035H146.368V70.5195H142.588V54.3035ZM140.884 54.3035L133.812 70.5195H130.077L123.029 54.3035H127.113L132.085 65.8862L137.126 54.3035H140.884ZM118.431 70.5195L115.28 66.0022H115.093H111.803V70.5195H108.022V54.3035H115.093C116.54 54.3035 117.797 54.5429 118.863 55.0215C119.929 55.5005 120.749 56.1798 121.325 57.06C121.901 57.9406 122.189 58.9829 122.189 60.1875C122.189 61.392 121.897 62.4306 121.314 63.3032C120.73 64.1758 119.902 64.8436 118.828 65.3071L122.492 70.5195H118.431H118.431ZM118.361 60.1877C118.361 59.2765 118.065 58.5778 117.474 58.091C116.883 57.6047 116.019 57.3613 114.883 57.3613H111.802V63.0136H114.883C116.019 63.0136 116.883 62.7667 117.474 62.2724C118.065 61.7785 118.361 61.0834 118.361 60.1875V60.1877ZM105.011 67.508V70.5195H92.361V54.3035H104.707V57.3149H96.1186V60.836H103.704V63.7551H96.1186V67.5078H105.011L105.011 67.508ZM82.8384 70.7975C81.5471 70.7975 80.2982 70.6238 79.0924 70.2765C77.8865 69.9289 76.9179 69.4774 76.1865 68.9211L77.4705 66.0952C78.1704 66.6048 79.003 67.0139 79.9678 67.3228C80.9324 67.6319 81.8971 67.7861 82.8619 67.7861C83.9353 67.7861 84.7289 67.6276 85.2423 67.3113C85.756 66.9949 86.0126 66.5738 86.0126 66.0486C86.0126 65.6628 85.8611 65.3422 85.5577 65.0872C85.2544 64.8325 84.8652 64.628 84.3906 64.4735C83.9161 64.3193 83.2743 64.1492 82.4651 63.9639C81.2203 63.6704 80.2012 63.3768 79.4076 63.0837C78.6139 62.7902 77.9332 62.3192 77.3654 61.6704C76.7976 61.0219 76.5135 60.1571 76.5135 59.0761C76.5135 58.1338 76.7704 57.2807 77.2838 56.5162C77.7973 55.7516 78.5714 55.1455 79.6061 54.6977C80.6409 54.2498 81.9049 54.0259 83.3988 54.0259C84.4409 54.0259 85.4605 54.1493 86.4561 54.3964C87.452 54.6434 88.3235 54.9988 89.0703 55.4621L87.9033 58.3113C86.394 57.4618 84.8849 57.0374 83.3756 57.0374C82.3174 57.0374 81.5354 57.2073 81.0298 57.547C80.5242 57.8867 80.2714 58.3344 80.2714 58.8906C80.2714 59.4466 80.5629 59.8598 81.1465 60.13C81.7299 60.4002 82.6205 60.6667 83.8188 60.9292C85.0637 61.2227 86.0828 61.5162 86.8764 61.8093C87.6697 62.1029 88.3508 62.5661 88.9183 63.1993C89.4863 63.8326 89.7704 64.6899 89.7704 65.7708C89.7704 66.6976 89.5098 67.5429 88.9887 68.3074C88.4672 69.072 87.6855 69.6782 86.643 70.1259C85.6004 70.5738 84.3323 70.7977 82.8386 70.7977L82.8384 70.7975ZM180 42.3041V48.1546H155.425V16.6513H179.411V22.5022H162.725V29.3427H177.461V35.0135H162.725V42.3041H180ZM147.896 16.6515V48.1548H141.866L126.042 29.0281V48.1548H118.787V16.6515H124.863L140.642 35.7787V16.6515H147.896ZM103.914 16.6515H111.259V48.1548H103.914V16.6515ZM76.5263 16.6515H83.8716V42.214H99.7866V48.1546H76.5263V16.6513V16.6515ZM68.9979 16.6515V48.1548H62.9674L47.1429 29.0281V48.1548H39.8883V16.6515H45.9642L61.7431 35.7787V16.6515H68.9979Z" fill="#A0A0A0"/>
<path fill-rule="evenodd" clip-rule="evenodd" d="M30.9874 44.1913C27.7531 47.9054 22.9724 50.2559 17.6382 50.2559C12.304 50.2559 7.52326 47.9057 4.28894 44.1913C5.81076 42.6562 7.59926 41.3827 9.57977 40.444C11.6144 42.542 14.4723 43.8481 17.6382 43.8481C20.8036 43.8481 23.662 42.5422 25.6966 40.444C27.6771 41.3827 29.4656 42.6564 30.9874 44.1913Z" fill="#00FCBC"/>
<path fill-rule="evenodd" clip-rule="evenodd" d="M39.9862 32.3859V16.651H42.8462H45.7061L53.6881 26.3271L61.6701 36.0031L61.7672 26.3271L61.8642 16.651H65.3204H68.7766V32.3859V48.1208L65.9522 48.1092L63.1279 48.0976L55.2925 38.54C50.983 33.2833 47.3341 28.975 47.1838 28.966C47.0335 28.9569 46.9105 33.2631 46.9105 38.5352V48.1208H43.4483H39.9862V32.3859Z" fill="#A0A0A0"/>
<path fill-rule="evenodd" clip-rule="evenodd" d="M39.9862 32.3859V16.651H42.8618H45.7375L53.7038 26.3271L61.6701 36.0031L61.7672 26.3271L61.8642 16.651H65.3204H68.7766V32.3859V48.1208L65.9522 48.1111L63.1279 48.1014L55.6635 39.0481C51.558 34.0689 47.9091 29.7345 47.5548 29.4162C46.9402 28.8641 46.9105 29.2822 46.9105 38.4791V48.1208H43.4483H39.9862V32.3859Z" fill="#A0A0A0"/>
<path fill-rule="evenodd" clip-rule="evenodd" d="M39.9862 32.3859V16.651H42.8725H45.7588L53.7144 26.3247L61.6701 35.9985L61.7672 26.3247L61.8642 16.651H65.3204H68.7766V32.3859V48.1208L65.9522 48.1177L63.1279 48.1146L55.3673 38.7129C51.0991 33.542 47.4502 29.3113 47.2586 29.3113C47.0463 29.3113 46.9105 32.9799 46.9105 38.7161V48.1208H43.4483H39.9862V32.3859Z" fill="#A0A0A0"/>
<path fill-rule="evenodd" clip-rule="evenodd" d="M39.9862 32.3859V16.651H42.8743H45.7625L53.7163 26.3019L61.6701 35.9529L61.7672 26.3019L61.8642 16.651H65.3204H68.7766V32.3859V48.1208H65.9221H63.0676L61.8351 46.5835C56.9881 40.5378 47.4969 29.3113 47.2327 29.3113C47.0543 29.3113 46.9105 33.5078 46.9105 38.7161V48.1208H43.4483H39.9862V32.3859Z" fill="#A0A0A0"/>
<path fill-rule="evenodd" clip-rule="evenodd" d="M76.7942 32.3859V16.651H80.2563H83.7185V29.4921V42.3333H91.7361H99.7537V45.2271V48.1208H88.2739H76.7942V32.3859Z" fill="#A0A0A0"/>
<path fill-rule="evenodd" clip-rule="evenodd" d="M76.7942 32.3859V16.651H80.2563H83.7185V29.4921V42.3333H91.7361H99.7537V45.2271V48.1208H88.2739H76.7942V32.3859Z" fill="#A0A0A0"/>
<path fill-rule="evenodd" clip-rule="evenodd" d="M76.7942 32.3859V16.651H80.2563H83.7185V29.4921V42.3333H91.7361H99.7537V45.2271V48.1208H88.2739H76.7942V32.3859Z" fill="#A0A0A0"/>
<path fill-rule="evenodd" clip-rule="evenodd" d="M76.7942 32.3859V16.651H80.2563H83.7185V29.4921V42.3333H91.7361H99.7537V45.2271V48.1208H88.2739H76.7942V32.3859Z" fill="#241C1C"/>
<path fill-rule="evenodd" clip-rule="evenodd" d="M39.9862 32.3859V16.651H42.8936H45.8011L53.7356 26.2923L61.6701 35.9337L61.7672 26.2923L61.8642 16.651H65.3204H68.7766V32.3859V48.1208H65.9433H63.11L56.0124 39.5962C52.1088 34.9077 48.5774 30.6714 48.1649 30.1822C47.7524 29.6931 47.3014 29.4055 47.1627 29.5432C47.024 29.6809 46.9105 33.9172 46.9105 38.9572V48.1208H43.4483H39.9862V32.3859Z" fill="#A0A0A0"/>
<path fill-rule="evenodd" clip-rule="evenodd" d="M39.9862 32.3859V16.651H42.8816H45.7769L53.4832 25.9654C57.7216 31.0882 61.3385 35.334 61.5209 35.4003C61.7145 35.4707 61.8523 31.5977 61.8523 26.0859V16.651H65.3145H68.7766V32.3859V48.1208H65.939H63.1014L60.0375 44.4132C50.2256 32.5395 47.4548 29.3833 47.1968 29.786C47.0455 30.0223 46.9191 34.2443 46.916 39.1682L46.9105 48.1208H43.4483H39.9862L39.9862 32.3859Z" fill="#A0A0A0"/>
<path fill-rule="evenodd" clip-rule="evenodd" d="M39.9862 32.3713V16.6217L42.9778 16.7268L45.9695 16.8319L53.6372 26.1122C58.3851 31.8586 61.4071 35.2334 61.5731 34.9744C61.7205 34.7444 61.8437 30.5276 61.8468 25.6036L61.8523 16.651H65.3145H68.7766V32.3859V48.1208H65.9214H63.0661L57.4573 41.3436C48.6471 30.6982 47.5884 29.533 47.2328 30.0899C47.0617 30.358 46.9191 34.5246 46.916 39.3491L46.9105 48.1208H43.4483H39.9862L39.9862 32.3713Z" fill="#A0A0A0"/>
<path fill-rule="evenodd" clip-rule="evenodd" d="M39.9862 32.3859V16.651H42.8921H45.798L49.339 20.9012C61.9425 36.0289 61.2685 35.2858 61.5333 34.3459C61.6688 33.8648 61.796 29.6866 61.816 25.061L61.8523 16.651H65.3145H68.7766V32.3859V48.1208H65.906H63.0355L57.4356 41.3385C54.3556 37.6083 50.8515 33.4203 49.6486 32.0318L47.4616 29.5074L47.2292 30.5849C47.1013 31.1776 46.9773 35.3656 46.9536 39.8917L46.9105 48.1208H43.4483H39.9862L39.9862 32.3859Z" fill="#241F1C"/>
<path fill-rule="evenodd" clip-rule="evenodd" d="M104.127 32.3859V16.651H107.589H111.051V32.3859V48.1208H107.589H104.127V32.3859Z" fill="#241F1C"/>
<path fill-rule="evenodd" clip-rule="evenodd" d="M119.069 32.3859V16.651L121.893 16.6751L124.718 16.6991L132.553 26.2558C136.862 31.512 140.511 35.8147 140.662 35.8174C140.812 35.8201 140.935 31.5087 140.935 26.2366V16.651H144.397H147.859V32.3859V48.1208H144.979H142.1L134.137 38.4802L126.175 28.8396L126.078 38.4802L125.981 48.1208H122.525H119.069V32.3859Z" fill="black"/>
<path fill-rule="evenodd" clip-rule="evenodd" d="M155.512 32.3859V16.651H167.357H179.201V19.5448V22.4386H170.806H162.41L162.515 25.9654L162.619 29.4921L169.999 29.5901L177.379 29.688V32.2125V34.7371H169.908H162.437V38.5352V42.3333H171.183H179.93V45.2271V48.1208H167.721H155.512V32.3859Z" fill="black"/>
<path fill-rule="evenodd" clip-rule="evenodd" d="M2.60455 40.6926C0.834065 37.694 0.178209 34.9379 0.369565 31.3007C0.579979 27.3013 1.52706 24.6626 3.85218 21.5978C5.94366 18.841 9.27319 16.5601 12.725 15.5194C14.8204 14.8877 15.8997 14.7799 18.682 14.9243C21.6172 15.0767 22.4545 15.2773 24.8303 16.3972C33.4127 20.4426 37.1383 29.6226 33.7833 38.458C33.3895 39.4952 32.6866 40.8135 32.2213 41.3875L31.3753 42.4313L29.6748 41.1429C28.7396 40.4343 27.634 39.7474 27.2181 39.6163C26.8022 39.4853 26.5198 39.2698 26.5905 39.1375C26.6613 39.0052 27.1896 37.9278 27.7647 36.7432C30.3682 31.3799 28.1149 24.7549 22.7569 22.0194C20.5832 20.9096 16.3152 20.6875 13.7042 21.5483C10.8895 22.4762 7.9294 25.4958 7.03118 28.3552C6.12021 31.2553 6.37554 34.6165 7.70416 37.2147C8.24839 38.279 8.64163 39.1929 8.57805 39.2456C8.51446 39.2984 8.05245 39.5499 7.55135 39.8046C7.05025 40.0592 6.04267 40.7324 5.31229 41.3004C4.5819 41.8685 3.89183 42.3333 3.7788 42.3333C3.66576 42.3333 3.13735 41.595 2.60455 40.6926Z" fill="black"/>
<path fill-rule="evenodd" clip-rule="evenodd" d="M39.9862 32.3859V16.651L42.8106 16.6693L45.6349 16.6877L51.4659 23.753C58.6479 32.4552 61.0898 35.1622 61.52 34.8983C61.7058 34.7843 61.8523 30.7162 61.8523 25.6727V16.651H65.3145H68.7766V32.3859V48.1208H66.0815H63.3864L55.4532 38.6405C48.821 30.7149 47.4742 29.2764 47.2409 29.8688C47.0873 30.2585 46.9502 34.5246 46.9361 39.3491L46.9105 48.1208H43.4483H39.9862V32.3859Z" fill="black"/>
<path fill-rule="evenodd" clip-rule="evenodd" d="M76.7942 32.3859V16.651H80.2563H83.7185V29.4921V42.3333H91.7361H99.7537V45.2271V48.1208H88.2739H76.7942V32.3859Z" fill="black"/>
<path fill-rule="evenodd" clip-rule="evenodd" d="M104.127 32.3859V16.651H107.589H111.051V32.3859V48.1208H107.589H104.127V32.3859Z" fill="black"/>
<path fill-rule="evenodd" clip-rule="evenodd" d="M78.7003 69.8655C77.6441 69.5034 76.689 69.1169 76.5779 69.0067C76.4669 68.8964 76.6452 68.2896 76.9742 67.6581C77.4179 66.8065 77.7307 66.5769 78.1855 66.7691C82.2566 68.489 85.5002 68.4046 86.089 66.5635C86.4647 65.3884 85.4537 64.5787 82.7063 63.8546C78.1012 62.6407 76.8157 61.6002 76.8023 59.0755C76.7818 55.2143 81.9554 53.1015 87.1386 54.8544C88.4893 55.3112 88.8125 55.5678 88.6199 56.03C88.4843 56.3552 88.2875 56.9193 88.1824 57.2835C88.0425 57.7683 87.7851 57.8812 87.2215 57.705C83.283 56.4737 81.0427 56.6076 80.3504 58.1158C79.6844 59.5665 80.3729 60.1314 84.1175 61.2068C86.8199 61.9829 87.7659 62.4357 88.5888 63.3466C89.4916 64.346 89.6081 64.7168 89.4518 66.0926C89.3525 66.9674 88.9648 68.0251 88.5904 68.443C86.7495 70.4974 82.3774 71.1263 78.7003 69.8655Z" fill="black"/>
<path fill-rule="evenodd" clip-rule="evenodd" d="M92.465 62.4089V54.6318H98.4782H104.491V55.8979V57.1639H100.3H96.1093V59.1534V61.1428H99.7537H103.398V62.4089V63.6749H99.7537H96.1093V65.6644V67.6538H100.483H104.856V68.9199V70.1859H98.6604H92.465V62.4089Z" fill="black"/>
<path fill-rule="evenodd" clip-rule="evenodd" d="M108.136 62.4089V54.6318H112.816C116.983 54.6318 117.669 54.7222 119.064 55.4547C122.662 57.3429 123.015 61.9723 119.756 64.5044L118.606 65.3976L120.327 67.7917L122.048 70.1859H120.247C118.459 70.1859 118.434 70.1701 116.912 68.0156C115.389 65.8617 115.364 65.8452 113.579 65.8452H111.78V68.0156V70.1859H109.958H108.136V62.4089ZM116.667 62.8075C118.164 62.1869 118.413 61.8105 118.413 60.1703C118.413 58.1365 117.388 57.3968 114.333 57.2254L111.78 57.0823V60.1977V63.3132H113.614C114.623 63.3132 115.997 63.0856 116.667 62.8075Z" fill="black"/>
<path fill-rule="evenodd" clip-rule="evenodd" d="M126.882 62.7145C125.09 58.5871 123.567 55.0709 123.496 54.9008C123.425 54.7306 124.212 54.6412 125.245 54.7021L127.122 54.8127L129.433 60.2254C130.705 63.2025 131.886 65.6801 132.058 65.7313C132.23 65.7825 133.442 63.3468 134.752 60.3185L137.134 54.8127L138.832 54.7032L140.53 54.5938L137.179 62.2994L133.828 70.005L131.984 70.112L130.139 70.219L126.882 62.7145Z" fill="black"/>
<path fill-rule="evenodd" clip-rule="evenodd" d="M142.757 62.4089V54.6318H144.397H146.037V62.4089V70.1859H144.397H142.757V62.4089Z" fill="black"/>
<path fill-rule="evenodd" clip-rule="evenodd" d="M154.871 70.0648C148.978 67.9434 147.6 60.1125 152.425 56.1649C155.395 53.7345 160.533 53.6202 163.399 55.9208L164.441 56.7571L163.494 57.7117L162.546 58.6664L161.307 57.9165C159.807 57.0089 157.049 56.9178 155.478 57.724C153.18 58.9034 152.204 62.6193 153.526 65.1558C154.795 67.5922 158.67 68.4585 161.242 66.8808L162.502 66.1077L163.472 67.0842L164.441 68.0607L163.399 68.897C161.429 70.4783 157.51 71.0149 154.871 70.0648Z" fill="black"/>
<path fill-rule="evenodd" clip-rule="evenodd" d="M167.539 62.4089V54.6318H173.552H179.565V55.8979V57.1639H175.192H170.819V59.1534V61.1428H174.645H178.472V62.4089V63.6749H174.645H170.819V65.6644V67.6538H175.374H179.93V68.9199V70.1859H173.734H167.539V62.4089Z" fill="black"/>
</g>
<defs>
<clipPath id="clip0_2_3">
<rect width="180" height="85.3448" fill="white"/>
</clipPath>
</defs>
</svg>
